# xmcd
#
# Track frame offsets:
#	150
#	20415
#	37385
#	54594
#	69937
#	83556
#	97992
#	109525
#	122467
#	137346
#	151751
#	166535
#
# Disc length: 2389 seconds
#
# Revision: 0
# Processed by: cddbd v1.5.1PL0 Copyright (c) Steve Scherf et al.
# Submitted via: EasyCDDAExtractor 8.1.2.3
#
DISCID=8209530c
DTITLE=Various Artist - Country Feuer - CD 1
DYEAR=2001
DGENRE=Country
TTITLE0=Jonny Hill - Hallo Teddybär
TTITLE1=Larry Schuba and Western Union - Mensch, waren das noch Zeiten
TTITLE2=Linda Feller - Du bist das Salz in der Suppe
TTITLE3=Frank Faber - Wir versuchen es nochmal mit Liebe
TTITLE4=Frank Baum and Country Green  - Hallo Nachbar, guten Morgen
TTITLE5=Joe Hodkins Boss Band - Hilly Billy Western Willy
TTITLE6=Country Rose - Spass am Leben
TTITLE7=Trucks aus dem Zillertal - Sie liebt nur Kris Kristofferson
TTITLE8=Dagmar, The Lady Of Country - Ich lieb dich noch in Hundert Jahren
TTITLE9=Greyhounds - Asphalt Cowboys
TTITLE10=Hanna and Daana - Wenn du wieder da bist 
TTITLE11=Country Roads - Dagegen hilft nur Country Music
EXTD=
EXTT0=
EXTT1=
EXTT2=
EXTT3=
EXTT4=
EXTT5=
EXTT6=
EXTT7=
EXTT8=
EXTT9=
EXTT10=
EXTT11=
PLAYORDER=
